<svg id="Capa_1" data-name="Capa 1" xmlns="http://www.w3.org/2000/svg" viewBox="0 0 756 756"><defs><style>.cls-1,.cls-2{fill:none;stroke-width:11px;}.cls-1{stroke:#04c3ea;stroke-miterlimit:10;}.cls-2{stroke:#fff;stroke-linecap:round;stroke-linejoin:round;}</style></defs><circle class="cls-1" cx="378" cy="378" r="372.5"/><path class="cls-2" d="M329.6,682.87l7.26-14.53A373.92,373.92,0,0,0,380.31,493h0c0-62.32,49.25-115.94,114.49-118.84,66.66-1.44,121.72,49.25,121.72,113v71a51.62,51.62,0,0,0,29,46.37h0" transform="translate(-122 -122)"/><path class="cls-2" d="M325.25,498.83c0-101.44,76.8-182.59,173.9-182.59S673,397.39,673,498.83v49.25" transform="translate(-122 -122)"/><path class="cls-2" d="M374.52,722l1.45-2.9c44.93-72.45,69.56-153.61,69.56-236.21h0c0-26.08,21.74-49.25,50.72-50.72,30.43-1.45,56.51,20.28,56.51,47.82h0c5.8,111.59-56.51,240.58-56.51,240.58" transform="translate(-122 -122)"/><path class="cls-2" d="M500.59,490.14l-2.89,20.29C489,582.91,470.17,653.89,442.63,722h0" transform="translate(-122 -122)"/></svg>