<svg id="Capa_1" data-name="Capa 1" xmlns="http://www.w3.org/2000/svg" viewBox="0 0 756 756"><defs><style>.cls-1{fill:none;stroke:#04c3ea;stroke-miterlimit:10;stroke-width:11px;}.cls-2{fill:#fff;}</style></defs><circle class="cls-1" cx="378" cy="378" r="372.5"/><g id="Layer_1" data-name="Layer 1"><path class="cls-2" d="M525.27,292.34h73.89a6.75,6.75,0,0,1,6.75,6.75,6.67,6.67,0,0,1-.46,2.42l-55.22,191h0a6.76,6.76,0,0,1-8.35,4.61,7.1,7.1,0,0,1-1.08-.42,111,111,0,0,0-68-4.32h0a6.74,6.74,0,0,1-7.95-8.95l53.84-186.28h0a6.75,6.75,0,0,1,6.62-4.87Zm65,13.49h-60l-49.5,171.25c1.32-.21,2.66-.4,4-.56a124.66,124.66,0,0,1,39,1.28,122.73,122.73,0,0,1,15.67,4.09l50.89-176.06Z" transform="translate(-122 -122)"/><path class="cls-2" d="M470.09,305.83h-60L461,481.89l.7-.23c1.41-.45,2.74-.87,4.08-1.26l27.4-94.86-23-79.74Zm-69-13.49H475a6.75,6.75,0,0,1,6.62,4.87h0l24.84,85.94a6.78,6.78,0,0,1,.18,4.29h0l-28.81,99.77a6.76,6.76,0,0,1-5,5.24h0q-3.67.93-7,2c-2.2.71-4.33,1.48-6.38,2.29a6.74,6.74,0,0,1-9-3.09,6.38,6.38,0,0,1-.42-1.13h0l-55.28-191a6.75,6.75,0,0,1,3.92-8.7,6.57,6.57,0,0,1,2.4-.43Z" transform="translate(-122 -122)"/><path class="cls-2" d="M500.14,475.56a124.23,124.23,0,1,1-87.83,36.38,124.23,124.23,0,0,1,87.83-36.38Zm78.29,45.92a110.74,110.74,0,1,0,32.42,78.3,110.73,110.73,0,0,0-32.42-78.3Z" transform="translate(-122 -122)"/><path class="cls-2" d="M506.55,537,520,578.8l44-.08A6.72,6.72,0,0,1,568,590.88h0l-35.61,25.76L546,658.43a6.73,6.73,0,0,1-10.76,7.24l-35.13-25.62L464.59,666a6.71,6.71,0,0,1-10.33-7.5h0l13.65-41.79-35.6-25.79a6.74,6.74,0,0,1,4.45-12.17l43.47.08L493.74,537a6.72,6.72,0,0,1,12.81,0Zm2.2,50.59-8.61-26.7-8.61,26.7h0a6.69,6.69,0,0,1-6.39,4.66l-28,0,22.71,16.43h0a6.77,6.77,0,0,1,2.46,7.51l-8.72,26.66,22.54-16.44a6.71,6.71,0,0,1,8-.08l22.65,16.52-8.64-26.41a6.74,6.74,0,0,1,2.36-7.79l22.71-16.42-27.72,0a6.71,6.71,0,0,1-6.71-4.66Z" transform="translate(-122 -122)"/></g></svg>