<svg id="Capa_1" data-name="Capa 1" xmlns="http://www.w3.org/2000/svg" viewBox="0 0 756 756"><defs><style>.cls-1{fill:none;stroke:#04c3ea;stroke-miterlimit:10;stroke-width:11px;}.cls-2{fill:#fff;}</style></defs><circle class="cls-1" cx="378" cy="378" r="372.5"/><path class="cls-2" d="M705.53,539.32l-15-14.89A28.36,28.36,0,0,0,657,519.64l-28.21-28.18,1.36-1.35a29.37,29.37,0,0,0-14.75-49.51,29.44,29.44,0,0,0-22.17-37,29.82,29.82,0,0,0,1.16-8.24,29.31,29.31,0,0,0-23.29-28.78,29.32,29.32,0,0,0-31.35-37.43l-55.92-10.58c-8.53-1.62-19.17-2.71-25.89,3.44a13.66,13.66,0,0,0-1.28,1.36,29.47,29.47,0,0,0-30.92,6.77,29.14,29.14,0,0,0-8.59,20.77,29.46,29.46,0,0,0,1.17,8.24A29.36,29.36,0,0,0,395,387.88a29.74,29.74,0,0,0,1.17,8.28,29.37,29.37,0,0,0-18.21,45.34,29.36,29.36,0,0,0-11.25,48.57l1.36,1.36-28.22,28.16a28.31,28.31,0,0,0-32.05,5.56l-15,14.94a28.31,28.31,0,0,0,0,40l18.69,18.68a8.48,8.48,0,0,0,12.11-11.87l-.13-.12-18.69-18.68a11.36,11.36,0,0,1,0-16l15-14.94a11.33,11.33,0,0,1,13.82-1.69,8.8,8.8,0,0,0,1.07,1.3,8.41,8.41,0,0,0,2.43,1.69l85.9,85.78a8.27,8.27,0,0,0,4.06,4.12,11.34,11.34,0,0,1-.47,15.48l-15,14.95a11.37,11.37,0,0,1-16,0l-18.68-18.69a8.48,8.48,0,0,0-12,12l18.7,18.71a28.39,28.39,0,0,0,39.94,0l15-15a28.36,28.36,0,0,0,4-35l31.75-31.72.1-.1c3.64-3.75,13.76-3.05,23.55-2.37,7,.48,14.71,1,22.29.14l34.77,34.73A28.34,28.34,0,0,0,559.75,655l15,15a28.32,28.32,0,0,0,40,0l90.82-90.7a28.29,28.29,0,0,0,0-40ZM480.65,335.24l36.76,7-22,22a53.88,53.88,0,0,1-13.19-9.58c-7-6.7-12-14.44-12.46-19.26h0a7.35,7.35,0,0,1-.05-.84c1.11-.27,4.07-.56,10.94.74Zm-43,6.91a12.48,12.48,0,0,1,15.81-1.5c2.75,11.5,12.59,22,17,26.2,3.28,3.14,13.8,12.55,24.42,15.13a12.44,12.44,0,0,1-19,15.88h0L437.7,359.71a12.47,12.47,0,0,1,0-17.56Zm-22.14,37a12.48,12.48,0,0,1,17.6,0l30.78,30.7a12.46,12.46,0,1,1-17.63,17.6h0L423,404.09l-.11-.1-7.3-7.29a12.43,12.43,0,0,1,0-17.59h0Zm-22.18,37a12.53,12.53,0,0,1,17.55-.07l23.44,23.41A12.44,12.44,0,0,1,416.76,457l-8.49-8.48h0l-14.85-14.83a12.46,12.46,0,0,1,0-17.6Zm-14.76,44.41a12.52,12.52,0,0,1,17.63,0l8.5,8.49a12.44,12.44,0,0,1-17.63,17.55l-1.06-1.06,0-.05-.05,0-7.34-7.31a12.45,12.45,0,0,1,0-17.6h0Zm172.68,96.31a8.46,8.46,0,0,0-12,0h0l-7.54,7.52c-7.16,7.17-20.15,6.27-32.69,5.42-13.64-1-27.75-1.93-36.86,7.44L431,608.35,353,530.41l27.62-27.58a29.38,29.38,0,0,0,44.73-25v-.22h.25a29.32,29.32,0,0,0,29.35-29.28V448h.22a29.28,29.28,0,0,0,29.37-29.18v-.39h.23a29.4,29.4,0,0,0,25.08-44.67l24.2-24.2a12.53,12.53,0,0,1,6.37-3.38,4.85,4.85,0,0,0,.75-.11,12.41,12.41,0,0,1,10.54,21.07l-7.37,7.34-.07.07-8.5,8.48a8.48,8.48,0,0,0,12,12l7.4-7.39h0l1.12-1.12a12.45,12.45,0,0,1,17.6,17.61l-7.41,7.45h0l-8.5,8.45a8.47,8.47,0,1,0,12,12l8.53-8.5a12.45,12.45,0,1,1,17.6,17.6l-14.78,14.75a8.48,8.48,0,0,0,11.09,12.82,7.85,7.85,0,0,0,.86-.87l7.25-7.24.13-.11A12.43,12.43,0,1,1,618.15,478l-7.35,7.39h0l-11.7,11.68a8.48,8.48,0,0,0,12,12l5.72-5.71,27.39,27.37-78,78-28-27.92a33.4,33.4,0,0,0,5.57-4.49l7.54-7.52a8.47,8.47,0,0,0,0-12Zm142.3,10.51L602.74,658a11.39,11.39,0,0,1-16,0l-15-15a11.34,11.34,0,0,1,0-16l90.82-90.69a11.39,11.39,0,0,1,16,0l15,14.92A11.36,11.36,0,0,1,693.59,567.33Z" transform="translate(-122 -122)"/></svg>